<?xml version="1.0" encoding="iso-8859-1"?>
<!-- Generator: Adobe Illustrator 17.0.0, SVG Export Plug-In . SVG Version: 6.00 Build 0)  -->
<!DOCTYPE svg PUBLIC "-//W3C//DTD SVG 1.1//EN" "http://www.w3.org/Graphics/SVG/1.1/DTD/svg11.dtd">
<svg version="1.1" id="Layer_1" xmlns="http://www.w3.org/2000/svg" xmlns:xlink="http://www.w3.org/1999/xlink" x="0px" y="0px"
	 width="512px" height="512px" viewBox="0 0 512 512" style="enable-background:new 0 0 512 512;" xml:space="preserve">
<circle id="background_45_" style="fill:#ECF0F0;" cx="256" cy="256" r="256"/>
<path style="fill:#E27C3E;" d="M291.164,278.754l-88,89.807l-11.477-11.477l-8.347-8.346l-8.347-8.347l-8.347-8.347l-8.345-8.346
	l-11.477-11.477l90.023-88.214c-35.785-29.788-83.738-57.38-130.196-42.194c-59.664,19.503-43.393,67.444-81.391,105.443
	c-6.018,6.019-13.201,10.317-21.338,13.608c8.033,45.445,28.063,86.74,56.689,120.523c2.548,3.008,5.165,5.956,7.848,8.843
	c2.681,2.884,5.424,5.704,8.233,8.461c2.809,2.758,5.681,5.452,8.613,8.079c2.94,2.632,5.938,5.198,8.999,7.693
	c33.568,27.382,74.211,46.409,118.767,53.933c3.235-7.659,7.408-14.45,13.144-20.186c37.998-37.999,85.822-21.844,105.325-81.509
	C346.385,361.297,320.228,314.326,291.164,278.754z"/>
<path style="fill:#334D5C;" d="M454.465,94.307c-2.497-3.061-5.064-6.059-7.693-8.998c-2.627-2.934-5.322-5.806-8.08-8.614
	c-2.757-2.809-5.577-5.553-8.46-8.231c-2.887-2.684-5.835-5.301-8.844-7.85c-3.186-2.701-6.441-5.325-9.76-7.87L236.85,224.008
	l-90.023,88.214l11.477,11.477l8.345,8.346l8.347,8.347l8.347,8.347l8.347,8.346l11.477,11.477l88-89.807L462.17,104.24
	C459.682,100.865,457.113,97.553,454.465,94.307z"/>
<path style="fill:#EFC84A;" d="M102.833,413.245c-29.53-29.528-29.53-77.577,0-107.106c29.53-29.53,77.58-29.532,107.11-0.002
	c29.529,29.528,29.529,77.582,0,107.111C180.413,442.778,132.363,442.775,102.833,413.245z"/>
<circle style="fill:#334D5C;" cx="156.388" cy="359.692" r="60.984"/>
<polygon style="fill:#4C738A;" points="370.248,93.291 422.095,145.139 426.225,140.922 374.465,89.162 "/>
<polygon style="fill:#4C738A;" points="307.017,155.253 360.133,208.37 364.265,204.155 311.232,151.121 "/>
<polygon style="fill:#4C738A;" points="243.783,217.213 298.171,271.603 302.303,267.389 247.998,213.083 "/>
<polygon style="fill:#4C738A;" points="180.55,279.175 236.211,334.837 240.341,330.62 184.767,275.045 "/>
<path style="fill:#ECF0F0;" d="M420.258,59.656L59.656,420.258c0.635,0.757,1.27,1.512,1.912,2.262l360.949-360.95
	C421.77,60.927,421.015,60.291,420.258,59.656z"/>
<path style="fill:#ECF0F0;" d="M429.151,67.457L67.454,429.15c0.667,0.726,1.339,1.444,2.014,2.162L431.313,69.469
	C430.595,68.794,429.876,68.123,429.151,67.457z"/>
<path style="fill:#ECF0F0;" d="M437.661,75.639L75.638,437.662c0.698,0.693,1.407,1.376,2.112,2.061L439.723,77.75
	C439.038,77.043,438.355,76.337,437.661,75.639z"/>
<path style="fill:#ECF0F0;" d="M445.79,84.202L84.203,445.79c0.729,0.661,1.473,1.31,2.211,1.962L447.751,86.413
	C447.098,85.676,446.451,84.933,445.79,84.202z"/>
<path style="fill:#ECF0F0;" d="M453.534,93.15L93.151,453.534c0.762,0.629,1.54,1.241,2.31,1.861L455.395,95.463
	C454.774,94.691,454.165,93.913,453.534,93.15z"/>
<g>
</g>
<g>
</g>
<g>
</g>
<g>
</g>
<g>
</g>
<g>
</g>
<g>
</g>
<g>
</g>
<g>
</g>
<g>
</g>
<g>
</g>
<g>
</g>
<g>
</g>
<g>
</g>
<g>
</g>
</svg>
